<?xml version="1.0" standalone="no"?>
<!DOCTYPE svg PUBLIC "-//W3C//DTD SVG 20010904//EN"
 "http://www.w3.org/TR/2001/REC-SVG-20010904/DTD/svg10.dtd">
<svg version="1.0" xmlns="http://www.w3.org/2000/svg"
 width="600.000000pt" height="600.000000pt" viewBox="0 0 600.000000 600.000000"
 preserveAspectRatio="xMidYMid meet">
<metadata>
Created by potrace 1.14, written by Peter Selinger 2001-2017
</metadata>
<g transform="translate(0.000000,600.000000) scale(0.100000,-0.100000)"
fill="#000000" stroke="none">
<path d="M2770 5994 c-19 -2 -78 -9 -130 -15 -540 -61 -1073 -283 -1510 -630
-136 -108 -375 -346 -480 -479 -348 -442 -550 -925 -632 -1510 -20 -146 -17
-603 5 -755 104 -702 400 -1288 890 -1762 474 -459 1040 -729 1727 -825 127
-17 593 -17 720 0 585 82 1074 287 1512 634 132 104 372 344 476 476 300 379
506 824 596 1288 44 232 51 307 51 584 0 277 -7 352 -51 584 -181 938 -823
1750 -1699 2148 -265 121 -528 197 -845 244 -100 14 -547 28 -630 18z m643
-134 c1164 -177 2101 -1023 2388 -2157 67 -266 83 -399 83 -703 0 -304 -16
-437 -83 -703 -261 -1032 -1066 -1837 -2098 -2098 -266 -67 -399 -83 -703 -83
-304 0 -437 16 -703 83 -1032 261 -1837 1066 -2098 2098 -67 266 -83 399 -83
703 0 304 16 437 83 703 261 1032 1066 1837 2099 2098 134 34 348 71 482 83
120 11 499 -3 633 -24z"/>
<path d="M1885 4020 c-852 -852 -1547 -1551 -1545 -1553 45 -39 118 -36 190 9
50 31 65 35 102 31 24 -2 52 -8 63 -11 17 -6 253 226 1380 1354 l1360 1360
536 -536 536 -536 34 18 c52 27 118 24 165 -7 69 -45 148 -62 184 -39 12 8
-134 159 -710 735 -399 399 -729 725 -735 725 -6 0 -707 -697 -1560 -1550z"/>
<path d="M2665 3886 c-382 -139 -622 -310 -839 -597 -44 -57 -103 -134 -133
-170 -29 -36 -53 -73 -53 -81 0 -21 137 -138 162 -138 11 0 19 10 139 173 120
163 99 158 265 69 46 -25 204 -176 397 -380 l127 -134 11 29 c6 15 21 42 35
60 l24 32 -28 21 c-55 43 -452 443 -452 456 0 8 -13 32 -29 54 -32 44 -56 127
-47 158 15 46 344 343 489 441 77 53 61 54 -68 7z"/>
<path d="M4655 3851 c-43 -19 -987 -948 -1189 -1169 l-110 -120 -55 57 -56 56
14 35 c33 85 -6 190 -94 250 -53 37 -89 35 -107 -5 -9 -21 -7 -29 16 -60 41
-54 66 -115 66 -167 0 -47 0 -47 -67 -94 -173 -121 -175 -123 -168 -157 4 -18
39 -173 77 -345 l71 -313 -20 -27 c-31 -41 -67 -50 -101 -25 -31 23 -46 72
-117 393 -25 113 -49 213 -53 223 -7 16 -21 8 -107 -61 -155 -123 -157 -125
-149 -169 8 -47 47 -168 80 -249 l24 -62 -55 -112 c-30 -62 -55 -125 -55 -141
0 -35 75 -118 159 -177 l60 -43 73 63 c214 185 667 625 1584 1545 609 609 590
587 582 703 -5 74 -43 133 -107 167 -55 29 -138 31 -196 4z m167 -57 c61 -31
96 -108 78 -173 -9 -34 -74 -105 -420 -458 -356 -364 -790 -788 -886 -867 -25
-20 -33 -23 -37 -12 -4 9 58 73 170 178 209 193 1098 1090 1124 1133 11 17 19
47 19 69 0 31 -7 45 -39 77 -32 32 -46 39 -77 39 -22 0 -52 -8 -69 -19 -35
-21 -1014 -994 -1167 -1159 -83 -89 -107 -110 -116 -99 -9 10 48 74 261 295
397 413 1001 1000 1040 1011 36 11 79 5 119 -15z m-2042 -2000 c75 -50 70 -81
-35 -214 -46 -59 -92 -111 -101 -114 -20 -8 -54 20 -54 43 1 21 112 257 133
282 20 23 26 23 57 3z"/>
<path d="M2820 2724 c-38 -33 -60 -74 -60 -114 0 -69 161 -782 182 -807 6 -8
23 -13 37 -11 20 2 27 9 29 31 2 15 -26 157 -62 315 -99 434 -105 467 -92 494
16 32 40 33 89 5 38 -23 44 -24 62 -10 11 8 27 19 35 24 13 8 11 12 -10 30
-39 33 -116 69 -149 69 -17 0 -42 -11 -61 -26z"/>
<path d="M2875 2618 c-2 -13 -1 -38 3 -56 l7 -32 38 25 c20 14 37 30 37 35 0
8 -61 50 -73 50 -4 0 -9 -10 -12 -22z"/>
<path d="M2158 2093 c-18 -15 -56 -48 -84 -73 -63 -56 -96 -67 -254 -80 -68
-6 -138 -17 -156 -25 -54 -22 -58 -41 -39 -175 22 -150 18 -324 -8 -363 -21
-33 -21 -51 -1 -83 14 -20 15 -30 5 -50 -18 -40 -13 -69 25 -149 33 -69 35
-78 24 -111 -15 -45 -4 -198 16 -218 23 -23 132 -36 305 -36 189 0 209 6 223
63 l10 37 50 -6 c175 -22 263 -42 287 -66 22 -22 38 -26 110 -32 93 -8 267 6
386 30 129 27 222 67 261 114 14 17 8 130 -9 161 -14 28 -47 23 -87 -12 -76
-67 -208 -105 -309 -89 -60 10 -116 36 -93 43 8 3 83 30 167 61 83 31 155 56
159 56 3 0 33 12 65 26 43 20 58 31 55 43 -2 9 -12 46 -21 83 -20 74 -52 114
-100 123 -22 4 -57 -7 -135 -43 l-105 -49 -50 14 c-67 20 -137 56 -212 109
-34 24 -64 44 -66 44 -3 0 -8 -11 -11 -25 -9 -34 -35 -34 -28 0 2 14 9 22 14
19 6 -4 7 2 3 17 -7 23 -63 89 -75 89 -3 0 -12 -22 -19 -50 -13 -50 -31 -76
-31 -45 0 10 7 43 15 75 15 57 14 60 -7 94 -13 19 -26 35 -29 36 -3 0 -13 -17
-23 -37 -27 -58 -46 -84 -56 -78 -5 3 4 31 21 61 28 54 37 107 21 130 -4 6
-38 16 -76 22 -73 12 -81 15 -72 31 4 6 18 6 39 0 17 -5 45 -9 61 -9 23 0 27
3 21 18 -21 51 -54 156 -70 221 -18 73 -41 111 -69 111 -8 0 -29 -12 -48 -27z
m392 -719 c0 -8 -19 -13 -24 -6 -3 5 1 9 9 9 8 0 15 -2 15 -3z"/>
<path d="M3437 2012 c-42 -42 -77 -81 -77 -86 0 -5 38 -48 85 -97 46 -49 139
-152 206 -229 136 -157 146 -162 215 -111 73 53 124 121 124 162 0 22 -32 55
-187 192 -104 91 -206 183 -228 206 -21 22 -44 41 -50 41 -6 0 -45 -35 -88
-78z"/>
</g>
</svg>
