<svg xmlns="http://www.w3.org/2000/svg" viewBox="0 0 643.06 643.06"><defs><style>.cls-1,.cls-2{fill:#010100;}.cls-1{stroke:#fff;stroke-width:4px;}.cls-1,.cls-6{stroke-miterlimit:10;}.cls-3{fill:#fff;}.cls-4{fill:#ffed00;}.cls-5{fill:#161615;}.cls-6{fill:none;stroke:#161615;stroke-width:10px;}</style></defs><title>Element 1</title><g id="Ebene_2" data-name="Ebene 2"><g id="Logo"><path class="cls-1" d="M301.52,220.44a1.77,1.77,0,0,1,.13,2.46c-22.07,13.42-42.62,32.41-59.73,51-1.88,12.4,8.1,21.55,8.1,21.55a6.3,6.3,0,0,1,.15,3.33C263,311.91,301.71,351,312.32,357.24c3.95,2.32,31.94,24.52,56.84,50.87,23.6,24.46,54.24,49.61,57.54,52.67s3.17,4.72,2.88,7.48c-.15,1.39-3.58,6.88-8.45,11.94-5.06,4.87-10.55,8.31-11.94,8.45-2.77.29-4.41.41-7.48-2.88S373.49,451.83,349,428.23c-26.35-24.9-48.55-52.89-50.87-56.84-6.29-10.77-46.47-50.39-59.05-62.69a6.29,6.29,0,0,1-3.13-.46s-5.75-5.36-16.62-8c-11,13.83-18.94,25.34-22.78,31.08a4.6,4.6,0,0,1-6.52,1.19c-4.35-3.13-11.22-8.26-14.92-12a4.9,4.9,0,0,1-.78-5.86A3.25,3.25,0,0,1,175,314c22.81-23.24,35.62-66.32,124.51-93.62A1.7,1.7,0,0,1,301.52,220.44Z"/><path class="cls-2" d="M318.66,453.29a6.3,6.3,0,0,1-6-4.64c-.6-2.58-1.37-5.76-2.29-9.53-1.79-7.29-4-16.36-6.5-27.59s-4.54-20.54-6.05-27.78c-4.3-20.55-3.95-21.64-3.42-23.28a20.85,20.85,0,0,1,5.11-8.92,20.42,20.42,0,0,1,5.34-3.81,8.2,8.2,0,0,1,3.71-.82c7.77,0,18.72,8.91,19.18,9.29l2.05,1.68-10,6.95-1.14-.76a66.12,66.12,0,0,0-9.05-5.28A7.39,7.39,0,0,0,308,360a8,8,0,0,0-1.88,3.23c.22,2,1.14,6.8,2.73,14.31,1.12,5.31,2.5,11.51,3.7,16.88,3.33,14.89,7.42,32.57,11,48.17l.78,3.34a6.31,6.31,0,0,1-4.43,7.18A5,5,0,0,1,318.66,453.29Z"/><path class="cls-3" d="M308.58,348.92c7.14,0,17.91,8.84,17.91,8.84l-6.69,4.66s-8.54-5.72-10.4-5.72h-.12a10.89,10.89,0,0,0-2.68,1.89,10.66,10.66,0,0,0-2.49,4.4c.14,1.94,1.2,7.4,2.8,15,1,4.88,2.31,10.63,3.71,16.9,3.57,16,8,35.22,11.8,51.52a4.07,4.07,0,0,1-1.22,3.72,4,4,0,0,1-1.78,1.08,3.16,3.16,0,0,1-.76.09,4.27,4.27,0,0,1-4-3.09c-1.72-7.46-5-19.95-8.79-37.1-2.67-12-4.62-21-6-27.76-4.19-20-3.85-21.12-3.48-22.26a19,19,0,0,1,4.62-8.12,18.3,18.3,0,0,1,4.83-3.44,6.29,6.29,0,0,1,2.81-.6m0-4h0a10.27,10.27,0,0,0-4.6,1,22.48,22.48,0,0,0-5.86,4.19,22.88,22.88,0,0,0-5.6,9.69c-.68,2.12-1,3.27,3.36,24.34,1.51,7.23,3.55,16.59,6.05,27.81s4.73,20.34,6.52,27.64c.91,3.72,1.69,6.93,2.28,9.49a8.26,8.26,0,0,0,7.93,6.19,6.9,6.9,0,0,0,1.76-.22A8.09,8.09,0,0,0,324,453a8,8,0,0,0,2.28-7.46l-.79-3.43c-3.6-15.57-7.68-33.21-11-48.06-1.2-5.35-2.57-11.55-3.69-16.85-1.75-8.26-2.42-12-2.64-13.66a5.41,5.41,0,0,1,1.24-2.06c.12-.12.26-.24.4-.36a89.29,89.29,0,0,1,7.74,4.67l2.27,1.52,2.24-1.56,6.7-4.66,4.34-3L329,354.67c-1.22-1-12.12-9.75-20.45-9.75Z"/><path class="cls-4" d="M320,365.87c5.33-3.84,10-7.12,13.63-9.46l1.37-.9,2.83,2.85-1.95,1.38-5.44,3.77-6.71,4.66-1.43,1Z"/><path class="cls-3" d="M334.77,358.08h0l-5.44,3.77-6.71,4.67-1.42,1c5.27-3.8,10-7.08,13.56-9.41m.54-5.11-2.73,1.76c-3.62,2.37-8.35,5.66-13.71,9.52l4.59,6.55,1.42-1,6.75-4.69,5.43-3.77,3.94-2.73-3.39-3.39-2.3-2.29Z"/><path class="cls-5" d="M320,365.87c5.33-3.84,10-7.12,13.63-9.46l1.37-.9,2.83,2.85-1.95,1.38-5.44,3.77-6.71,4.66-1.43,1Z"/><path class="cls-3" d="M334.77,358.08h0l-5.44,3.77-6.71,4.67-1.42,1c5.27-3.8,10-7.08,13.56-9.41m.54-5.11-2.73,1.76c-3.62,2.37-8.35,5.66-13.71,9.52l4.59,6.55,1.42-1,6.75-4.69,5.43-3.77,3.94-2.73-3.39-3.39-2.3-2.29Z"/><path class="cls-5" d="M284,501.76c-6.62,0-12.22-4.61-17.12-14.09-5.17-10,2.74-25.12,8-35.12,1.45-2.76,3.22-6.15,3.5-7.4-3.11-4.84-12.92-32.64-11.35-37.08a6.32,6.32,0,0,1,1.67-2.2c3.24-3.24,12.53-10.8,25.49-20.75l2.51-1.92.66,3.09c1.58,7.41,3.45,16,5.56,25.46,2.53,11.31,4.75,20.4,6.53,27.7.94,3.81,1.7,6.94,2.27,9.43a6.88,6.88,0,0,0,3.22,4.33,7.25,7.25,0,0,0,3.73,1.08,6.41,6.41,0,0,0,1.53-.19,7.12,7.12,0,0,0,3.14-1.85,7,7,0,0,0,2-6.53l-.53-2.26c-4.42-19.09-11.82-51-15.43-68.36l-.26-1.26,1-.76c4-2.92,7.05-5.18,9.75-7.11l1.6-1.09,6.7-4.66,3.48-2.41-.05-.06,2.42-1.59.68-.44c2.1-8.57-.82-16.91-8.69-24.81l-.81-.81.29-1.1c1.25-4.84,3-6.57,7.72-7.69l.74-.18.67.37c9.07,4.9,14.67,10.79,16.64,17.5,1.55,5.31.84,11-2.12,17a79.74,79.74,0,0,1,10.42,10.64l1.58-1.51c10.79-12.1,29.4-31.37,55.3-57.27,36.32-36.32,75.52-74.19,75.91-74.57a24,24,0,0,1,17-7.05,24.37,24.37,0,0,1,13,3.76,29.9,29.9,0,0,1,7.81,7.81,24.12,24.12,0,0,1-3.28,30c-.39.4-37.57,38.89-74.43,75.76-29.31,29.31-50.05,49.22-61.65,59.18-2,2.19-4.28,4.66-4.58,5.06-.57.78-4.72,5.52-10.62,11.42-15.6,15.6-44.2,42.85-55.76,53.84l-.68.64c-.09.09-7.5,6.94-15.16,13.72-16,14.16-17.45,14.23-18.51,14.28h-.14c-.4,0-.86.05-1.36.05ZM295,451.21a3.78,3.78,0,0,0-2.67,1.11,3.51,3.51,0,0,0-.74,1.05l-12.41,26.52a4,4,0,0,0-.31,2.35,3.84,3.84,0,0,0,1.09,2.07,3.2,3.2,0,0,0,2.27.95,3.16,3.16,0,0,0,2.25-.93,3.53,3.53,0,0,0,.25-.28L301,463.39a6.52,6.52,0,0,0-1-9.12l-2.66-2.19A3.7,3.7,0,0,0,295,451.21ZM382.12,397a.24.24,0,0,0,0,.3l.29.39.32.45,2-2,.05-.05c11.37-9.73,32-29.56,61.39-58.92,34.67-34.68,70.34-71.54,74.3-75.63l.07-.07a15.12,15.12,0,0,0,2.08-18.82,20.72,20.72,0,0,0-5-5,15.27,15.27,0,0,0-8.13-2.36,15.08,15.08,0,0,0-10.68,4.44l-.08.08c-4.11,4-41.1,39.76-75.8,74.46-25.95,25.95-44.5,45.16-55.15,57.11l-.11.11-2.32,2.24.63.81a.2.2,0,0,0,.17.08.21.21,0,0,0,.15-.06l.06-.06c.46-.53.94-1.08,1.44-1.63,10.38-11.75,29.17-31.23,55.83-57.89,36.56-36.56,75.49-74.16,75.88-74.54a14.21,14.21,0,0,1,17.58-2,20.49,20.49,0,0,1,4.72,4.71,14.3,14.3,0,0,1-2,17.62c-.35.36-37.83,39.16-74.35,75.67-29,29.06-49.58,48.77-61,58.59l-1.88,1.6Z"/><path class="cls-3" d="M509.4,228.28a22.33,22.33,0,0,1,11.9,3.45,28.16,28.16,0,0,1,7.2,7.2,22.11,22.11,0,0,1-3,27.46l0,0c-4,4.1-39.67,41-74.39,75.72C421.7,371.5,401,391.41,389.43,401.3c0,0-4.31,4.64-4.8,5.3s-4.26,5-10.43,11.21c-18.41,18.41-54.89,53-56.4,54.45,0,0-29.49,27.3-32.4,27.45-.4,0-.87.05-1.4.05-3.39,0-9.22-1.18-15.34-13-7.06-13.68,13.84-39.89,11.56-42.43s-12.62-31.93-11.33-35.58a5.85,5.85,0,0,1,1.2-1.46c3.42-3.42,13.63-11.62,25.3-20.57,1.4,6.58,3.21,14.91,5.56,25.48,2.52,11.3,4.75,20.41,6.54,27.73.9,3.69,1.68,6.87,2.26,9.4a8.87,8.87,0,0,0,4.14,5.6,9.22,9.22,0,0,0,4.76,1.37,8.47,8.47,0,0,0,2-.25,9.33,9.33,0,0,0,6.62-10.77l-.53-2.27c-5-21.72-11.93-51.55-15.42-68.31,3.35-2.47,6.63-4.88,9.73-7.1l.14-.1,1.42-1,6.71-4.67,5.44-3.77h0l1.7-1.1c2-7.36,1.31-17.12-9-27.48,1.06-4.12,2.24-5.3,6.24-6.25,19.42,10.5,18.46,23.33,12.91,33.37,3.7,2.61,8.2,7.39,12.82,13l1.49-1.44,1.69-1.62c10.73-12,29.33-31.31,55.28-57.25,34.73-34.73,71.77-70.57,75.88-74.54l.05-.05a22,22,0,0,1,15.58-6.44M366.06,376.61a2.24,2.24,0,0,0,1.57-.65l.11-.11,1.46-1.66c12-13.53,33.52-35.57,55.76-57.81,37-37,75.85-74.51,75.85-74.51a12.21,12.21,0,0,1,15.12-1.7,18.8,18.8,0,0,1,4.11,4.1,12.22,12.22,0,0,1-1.71,15.13S480.91,298.15,444,335.07c-24,24-47.75,47.18-60.9,58.48-.78.68-1.53,1.31-2.24,1.9a.89.89,0,0,0-.14.13,2.22,2.22,0,0,0-.26,2.85l.32.44.58.82,1.1,1.52,3.57-3.58c11.4-9.76,32.07-29.59,61.5-59,36.11-36.11,73.15-74.43,74.38-75.71a17.1,17.1,0,0,0,2.36-21.29,22.64,22.64,0,0,0-5.65-5.65,17.11,17.11,0,0,0-21.3,2.34c-1.27,1.23-39.74,38.4-75.89,74.55-26,26-44.58,45.24-55.22,57.19l-1.82,1.74-1.8,1.74h0l1.71,2.22a2.24,2.24,0,0,0,1.76.86M282.18,487.26a5.15,5.15,0,0,0,3.66-1.51c.14-.14.27-.3.41-.47l16.29-20.65a8.55,8.55,0,0,0-1.27-11.9l-2.66-2.2a5.71,5.71,0,0,0-3.66-1.32,5.8,5.8,0,0,0-4.09,1.69,5.93,5.93,0,0,0-1.14,1.64L277.31,479a6,6,0,0,0-.46,3.54,5.82,5.82,0,0,0,1.65,3.15,5.2,5.2,0,0,0,3.68,1.53m227.22-263a26,26,0,0,0-18.4,7.61l0,0c-1.22,1.18-40,38.65-75.91,74.56-25.89,25.89-44.5,45.16-55.33,57.29a81.78,81.78,0,0,0-8.1-8.28c2.62-5.95,3.15-11.67,1.58-17.05-2.13-7.25-8-13.54-17.61-18.7l-1.34-.73-1.48.35c-5.45,1.29-7.77,3.6-9.2,9.14l-.57,2.21,1.61,1.61c7.1,7.13,9.9,14.58,8.34,22.16h0l-.36.23-4.16,2.69.13.13-1.5,1-6.72,4.67-1.38.94,0,0,0,0-.14.1c-2.74,2-5.85,4.23-9.81,7.15L306.9,373l.52,2.51c3.63,17.37,11,49.31,15.44,68.39l.54,2.29a5,5,0,0,1-1.5,4.64,4.9,4.9,0,0,1-2.23,1.33,4.19,4.19,0,0,1-1,.13,5.11,5.11,0,0,1-2.68-.79,4.81,4.81,0,0,1-2.32-3.08c-.57-2.49-1.31-5.49-2.28-9.45-1.78-7.29-4-16.36-6.51-27.65-2.11-9.48-4-18-5.56-25.44l-1.32-6.2-5,3.86c-6.16,4.73-21,16.23-25.68,20.91a8.27,8.27,0,0,0-2.13,2.9v0c-.44,1.25-1.36,3.85,4.29,20.82,1.08,3.23,4.38,12.88,6.76,17.17-.56,1.41-1.93,4-3.08,6.23-5.43,10.36-13.64,26-8,37,5.28,10.2,11.46,15.17,18.9,15.17.58,0,1.08,0,1.48-.05h.13c1.72-.09,3.21-.16,19.73-14.78,7.69-6.79,15.11-13.66,15.18-13.73l0,0,0,0,.7-.66c11.57-11,40.18-38.26,55.77-53.85,5.91-5.91,10-10.57,10.79-11.62.37-.46,2.52-2.83,4.39-4.84,11.65-10,32.4-29.93,61.68-59.21,36.87-36.87,74.06-75.38,74.43-75.77h0a26.1,26.1,0,0,0,3.56-32.39l0,0v0a31.77,31.77,0,0,0-8.4-8.39,26.38,26.38,0,0,0-14.06-4.09ZM387.84,409h0ZM282.18,483.26a1.23,1.23,0,0,1-.86-.36,1.81,1.81,0,0,1-.53-1,2,2,0,0,1,.15-1.17l12.41-26.49a1.83,1.83,0,0,1,.34-.5,1.8,1.8,0,0,1,1.26-.52,1.69,1.69,0,0,1,1.11.41l2.67,2.19a4.53,4.53,0,0,1,.67,6.33l-16.26,20.63-.14.17a1.19,1.19,0,0,1-.82.32Z"/><path class="cls-2" d="M36.32,378.45s8.37,7.59,19.25-1.16,19.22-1.1,19.22-1.1L368.25,82.73,484,198.45s12-8.58,21.79-.8,19.48,4,19.48,4l-156-156ZM485.63,188.94c-1.17,1.17-2.7,1.54-3.42.82s-.35-2.25.83-3.42,2.7-1.54,3.41-.83S486.8,187.77,485.63,188.94Zm-5.82-5.82c-1.17,1.17-2.7,1.54-3.41.82s-.36-2.25.82-3.42,2.71-1.53,3.42-.82S481,182,479.81,183.12ZM474,177.3c-1.17,1.18-2.71,1.54-3.42.82s-.35-2.24.83-3.41,2.7-1.54,3.41-.83S475.17,176.14,474,177.3Zm-5.82-5.82c-1.17,1.18-2.7,1.55-3.41.83s-.36-2.25.82-3.42,2.7-1.54,3.42-.82S469.35,170.32,468.18,171.48Zm-5.82-5.82c-1.17,1.18-2.7,1.55-3.41.83s-.35-2.24.82-3.41,2.7-1.54,3.42-.83S463.53,164.5,462.36,165.66Zm-5.81-5.81c-1.17,1.18-2.71,1.54-3.42.82s-.35-2.24.82-3.41,2.7-1.54,3.42-.83S457.72,158.69,456.55,159.85ZM450.73,154c-1.17,1.18-2.7,1.54-3.42.83s-.35-2.25.82-3.42,2.71-1.54,3.43-.82S451.9,152.87,450.73,154Zm-5.82-5.82c-1.17,1.18-2.7,1.54-3.42.83s-.34-2.24.83-3.41,2.7-1.55,3.42-.83S446.08,147.05,444.91,148.21Zm-5.81-5.81c-1.18,1.17-2.71,1.54-3.42.82s-.35-2.24.82-3.41,2.7-1.55,3.42-.83S440.26,141.23,439.1,142.4Zm-5.82-5.82c-1.18,1.17-2.7,1.54-3.42.83s-.35-2.25.82-3.42,2.7-1.55,3.43-.82S434.44,135.41,433.28,136.58Zm-5.82-5.82c-1.18,1.18-2.7,1.54-3.42.83s-.34-2.24.83-3.42,2.7-1.54,3.42-.82S428.63,129.59,427.46,130.76ZM421.65,125c-1.18,1.17-2.71,1.54-3.43.82s-.34-2.24.83-3.42,2.7-1.54,3.42-.82S422.81,123.78,421.65,125Zm-5.82-5.82c-1.18,1.17-2.7,1.54-3.42.83s-.35-2.25.82-3.43,2.7-1.54,3.42-.82S417,118,415.83,119.13ZM410,113.31c-1.18,1.17-2.7,1.54-3.42.83s-.34-2.24.83-3.42,2.7-1.54,3.41-.82S411.17,112.14,410,113.31Zm-5.82-5.81c-1.17,1.17-2.7,1.54-3.42.82s-.34-2.24.83-3.42,2.7-1.54,3.42-.82S405.36,106.33,404.19,107.5Zm-5.81-5.82c-1.18,1.17-2.71,1.54-3.42.83s-.35-2.25.82-3.43,2.7-1.54,3.42-.82S399.54,100.51,398.38,101.68Zm-5.82-5.82c-1.18,1.17-2.71,1.54-3.42.83s-.35-2.25.83-3.42,2.7-1.54,3.41-.83S393.72,94.69,392.56,95.86Zm-5.82-5.81c-1.17,1.17-2.7,1.54-3.42.82s-.35-2.24.83-3.42,2.7-1.54,3.41-.83S387.91,88.88,386.74,90.05Zm109.32,94.47c-1.17,1.17-2.7,1.54-3.42.82s-.35-2.25.83-3.42,2.7-1.54,3.41-.83S497.23,183.35,496.06,184.52Zm-5.82-5.82c-1.17,1.17-2.7,1.54-3.41.82s-.35-2.24.82-3.41,2.71-1.54,3.42-.83S491.41,177.53,490.24,178.7Zm-5.81-5.82c-1.17,1.18-2.71,1.54-3.42.82s-.35-2.24.83-3.41,2.7-1.54,3.41-.83S485.6,171.72,484.43,172.88Zm-5.82-5.82c-1.17,1.18-2.7,1.55-3.41.83s-.36-2.25.82-3.42,2.7-1.54,3.42-.82S479.78,165.9,478.61,167.06Zm-5.82-5.81c-1.17,1.17-2.7,1.54-3.41.82s-.35-2.24.82-3.41,2.7-1.54,3.42-.83S474,160.08,472.79,161.25ZM467,155.43c-1.17,1.18-2.71,1.54-3.42.82s-.35-2.24.82-3.41,2.7-1.54,3.42-.83S468.15,154.27,467,155.43Zm-5.82-5.82c-1.17,1.18-2.7,1.54-3.42.83s-.35-2.25.82-3.42,2.71-1.54,3.43-.82S462.33,148.45,461.16,149.61Zm-5.82-5.82c-1.17,1.18-2.7,1.55-3.42.83s-.34-2.24.83-3.41,2.7-1.55,3.42-.83S456.51,142.63,455.34,143.79ZM449.53,138c-1.18,1.18-2.71,1.54-3.43.82s-.34-2.24.83-3.41,2.7-1.55,3.42-.83S450.69,136.81,449.53,138Zm-5.82-5.82c-1.18,1.18-2.7,1.54-3.42.83s-.35-2.25.82-3.42,2.7-1.54,3.43-.82S444.87,131,443.71,132.16Zm-5.82-5.82c-1.18,1.18-2.7,1.54-3.42.83s-.34-2.24.83-3.42,2.7-1.54,3.42-.82S439.06,125.18,437.89,126.34Zm-5.81-5.81c-1.18,1.17-2.71,1.54-3.43.82s-.34-2.24.83-3.42,2.7-1.54,3.42-.82S433.24,119.36,432.08,120.53Zm-5.82-5.82c-1.18,1.17-2.7,1.54-3.42.83s-.35-2.25.82-3.42,2.7-1.55,3.42-.82S427.42,113.54,426.26,114.71Zm-5.82-5.82c-1.18,1.17-2.7,1.54-3.42.83s-.34-2.24.83-3.42,2.7-1.54,3.41-.82S421.6,107.72,420.44,108.89Zm-5.82-5.81c-1.17,1.17-2.7,1.54-3.42.82s-.34-2.24.83-3.42,2.7-1.54,3.41-.82S415.79,101.91,414.62,103.08Zm-5.81-5.82c-1.18,1.17-2.71,1.54-3.42.83s-.35-2.25.82-3.43,2.7-1.54,3.42-.82S410,96.09,408.81,97.26ZM403,91.44c-1.18,1.17-2.71,1.54-3.42.83s-.35-2.24.83-3.42,2.7-1.54,3.41-.83S404.15,90.27,403,91.44Zm-5.82-5.81c-1.17,1.17-2.7,1.54-3.42.82s-.35-2.24.83-3.42,2.7-1.54,3.41-.83S398.34,84.46,397.17,85.63Z"/><path class="cls-2" d="M293.77,567.58a82.11,82.11,0,0,1-16.61-1.41,7.21,7.21,0,0,1-5.3-4.64h0c-5.23-2-24.63-4.3-32.78-5.2-1,5.25-2.56,8.4-4.7,9.36-2.59,1.15-14.58,1.57-22,1.57-32.76,0-34.13-5.19-34.57-6.89-1.85-7.08-1.13-20.61-1.07-21.71a4.56,4.56,0,0,1,1.78-3.54,38.33,38.33,0,0,0-3.28-7.54c-3.13-6.14-6.37-12.5-3.46-17.05,1.91-3,1-4.17-.42-6s-3.56-4.55,0-8.33c4.85-5.17,3.06-32.59-.26-48.46a9.65,9.65,0,0,1,5.29-10.72c4.2-2,11-2.5,18.2-3,7.9-.56,16.84-1.19,21.9-4,3.32-2.58,6.18-5.24,8.7-7.58,4.64-4.31,8-7.42,11.37-7.42,4.92,0,7.06,6.35,8.65,13.22a140.83,140.83,0,0,0,7.63,24.29l1.17,2.76H254l.57,1.24c.53,1.16,1.09,2.31,1.67,3.42l.26.51-.05.57a12.73,12.73,0,0,1-.4,4.89l1.12-4,2.37,4c1.48,2.51,3,4.89,4.61,7.08l.45.63-.08.76c-.09.8-.22,1.61-.36,2.43l.59-2.83,2.65,3.3a89.52,89.52,0,0,0,6.37,7.12l.58.57v.81a21.41,21.41,0,0,1-2.92,10.76h0a21.1,21.1,0,0,0,2.71-7.52l.57-3.62,2.74,2.44c15.62,13.91,31.09,17.18,34.14,17.71l22.24-10.28h.44A14.24,14.24,0,0,1,347.35,504l0,.09,0,.09c.15.47,3.65,11.54,4.17,15.87l.15,1.3-1.13.66c-1,.58-9.87,5.69-14.5,6.49-1.91.33-6.91,2.3-12.21,4.39-6.35,2.5-14.08,5.54-20.22,7.26,3.56,1.85,8.69,2.92,14.12,2.92a42.1,42.1,0,0,0,30.28-12.42l.2-.22.26-.14a5.71,5.71,0,0,1,2.78-.79c3.1,0,5,3,5.71,5.75.17.56,1.11,4,1.16,11.32a6.78,6.78,0,0,1-.37,2.38c-4.18,12-40.52,18.64-64,18.64Zm-31.66-82.83c-.57,1.78-1.08,3.12-1.3,3.69C261,487.88,261.54,486.53,262.11,484.75Zm-6.8-16.52a44.46,44.46,0,0,1-5.49,9.85A43.22,43.22,0,0,0,255.31,468.23ZM238.62,453.3a58.86,58.86,0,0,0,13.23,2.07l-1-.06a67.31,67.31,0,0,1-12-2Z"/><path class="cls-3" d="M236.5,417c2.68,0,4.74,3.17,6.7,11.67a141.45,141.45,0,0,0,7.74,24.62,65.25,65.25,0,0,1-11.67-2,2.1,2.1,0,0,0-.56-.07,2,2,0,0,0-.57,3.91,56.43,56.43,0,0,0,14,2.18h.59q.83,1.8,1.71,3.51a1.7,1.7,0,0,0,0,.39c.73,5.18-4.26,13-6.24,15.6a2,2,0,0,0,.37,2.81,2,2,0,0,0,2.8-.37A41.86,41.86,0,0,0,257.82,467q2.28,3.86,4.71,7.23A63.53,63.53,0,0,1,258.84,488a2,2,0,0,0,3.71,1.49,71.61,71.61,0,0,0,3.29-10.89,90.57,90.57,0,0,0,6.52,7.28,19.38,19.38,0,0,1-2.66,9.73,2,2,0,0,0,.57,2.76,2,2,0,0,0,1.1.33,2,2,0,0,0,1.67-.9,22.87,22.87,0,0,0,3.07-8.39c18,16,35.76,18.29,35.76,18.29l22.39-10.35a12.23,12.23,0,0,1,11.25,7.43s3.58,11.31,4.08,15.5c0,0-9.42,5.49-13.83,6.25-4.81.83-23.57,9.58-34.75,12.25-.65.16-.21.93-.2,1.4a1,1,0,0,0,.38.83c3.77,2.5,9.78,4.06,16.6,4.06,10.38,0,22.64-3.61,31.72-13a3.69,3.69,0,0,1,1.8-.53c2.33,0,3.45,3,3.78,4.29,0,0,1,3.11,1.09,10.79a4.91,4.91,0,0,1-.26,1.7c-3.6,10.36-37.49,17.31-62.15,17.31a81.46,81.46,0,0,1-16.2-1.37,5.27,5.27,0,0,1-4.08-4.31,4.07,4.07,0,0,1-.95-.25c-6.42-2.43-32.38-5.22-35.14-5.52-.66,4.51-2,8.88-3.86,9.73-1.69.76-10.87,1.4-21.2,1.4-14.63,0-31.56-1.29-32.64-5.4-1.83-7-1-21.13-1-21.13a2.55,2.55,0,0,1,1.91-2.47c.11-5.93-11-18.65-7.19-24.65,5.09-8-5.66-8.67-.66-14,6.07-6.48,3-37,.24-50.24a7.68,7.68,0,0,1,4.19-8.51c8.5-4.08,30.39-1.43,40.35-7.17,9.15-7.09,14.81-14.67,19-14.67m37.85,131.32s0,0,0,0h0a0,0,0,0,0,0,0M236.5,413h0c-4.16,0-7.75,3.34-12.73,8-2.46,2.29-5.24,4.88-8.45,7.38-4.7,2.57-13.31,3.17-20.93,3.71-7.39.52-14.38,1-18.93,3.19a11.65,11.65,0,0,0-6.37,12.95,177.24,177.24,0,0,1,3.1,27c.57,16.12-2.05,19.39-2.35,19.71-4.72,5-1.36,9.32-.09,10.94s1.45,1.85.3,3.64c-3.52,5.52.14,12.7,3.37,19a58.06,58.06,0,0,1,2.81,6,6.54,6.54,0,0,0-1.53,4.06c-.08,1.38-.78,15,1.13,22.28,1,3.85,5.23,5.93,14.57,7.19a172.38,172.38,0,0,0,21.94,1.2c1.94,0,19,0,22.83-1.75,1-.44,3.74-1.67,5.47-9,14.59,1.66,25.61,3.37,29.73,4.63a9.14,9.14,0,0,0,6.38,5,83.82,83.82,0,0,0,17,1.46,173.18,173.18,0,0,0,40-4.89c15.08-3.81,23.82-8.89,26-15.1a9,9,0,0,0,.48-3.09c-.05-7.35-1-11-1.24-11.81-1.17-4.44-4.09-7.2-7.63-7.2a7.62,7.62,0,0,0-3.75,1l-.52.29-.41.43a40.11,40.11,0,0,1-28.84,11.81,36.07,36.07,0,0,1-7.78-.81c4.77-1.63,9.89-3.65,14.62-5.51,5-2,10.1-4,11.81-4.27,4.88-.85,13.49-5.76,15.16-6.74l2.27-1.32-.31-2.61c-.53-4.44-3.86-15-4.24-16.23l-.06-.19-.07-.18a16.24,16.24,0,0,0-14.93-9.86h-.88l-.8.37-21.26,9.83c-3.92-.78-18.2-4.35-32.55-17.13l-2.44-2.17v-.05L275.19,483a85.58,85.58,0,0,1-6.23-7l-2.29-2.84v-.1l-.9-1.26c-1.55-2.14-3.07-4.47-4.52-6.93l-2.74-4.64,0-.26-.53-1c-.56-1.08-1.1-2.2-1.62-3.34l-1.14-2.47h0l-.63-1.47a139.11,139.11,0,0,1-7.51-23.92c-1.78-7.71-4.29-14.81-10.61-14.81Z"/><circle class="cls-6" cx="321.53" cy="321.53" r="316.53"/></g></g></svg>